<?xml version="1.0" standalone="no"?>
<!DOCTYPE svg PUBLIC "-//W3C//DTD SVG 1.1//EN" "http://www.w3.org/Graphics/SVG/1.1/DTD/svg11.dtd"><svg id="logo" width="100" height="100" version="1.1" xmlns="http://www.w3.org/2000/svg" xmlns:xlink="http://www.w3.org/1999/xlink">
<g fill="#ef5350">
<g transform="translate(-45, -20) scale(0.62)">
<path d="M150 50 L150 174.8528137423857 L130 154.8528137423857 L130 70 "/>
<path d="M131 69 L73.4314575050762 126.5685424949238 L73.4314575050762 154.8528137423857 L131 97.2842712474619 "/>
<path d="M131 155.8528137423857 L105.04906208587143 129.90187582825715 L119.19119770960238 115.75974020452618 L131 127.5685424949238 "/>
<path d="M73.4314575050762 98.2842712474619 L73.4314575050762 70 L98.38239541920477 94.95093791412857 L84.24025979547382 109.09307353785952 "/>
<path d="M154.71404520791032 50 L154.71404520791032 174.8528137423857 L174.71404520791032 154.8528137423857 L174.71404520791032 70 "/>
<path d="M173.71404520791032 127.5685424949238 L231.28258770283412 70 L202.99831645537222 70 L173.71404520791032 99.2842712474619 "/>
<path d="M206.33164978870556 101.61760458079523 L231.28258770283412 126.5685424949238 L231.28258770283412 154.8528137423857 L192.1895141649746 115.75974020452618 "/>
</g>
</g>
</svg>
