<?xml version="1.0" standalone="no"?>
<!DOCTYPE svg PUBLIC "-//W3C//DTD SVG 1.1//EN" "http://www.w3.org/Graphics/SVG/1.1/DTD/svg11.dtd"><svg id="logo" width="500" height="100" version="1.1" xmlns="http://www.w3.org/2000/svg" xmlns:xlink="http://www.w3.org/1999/xlink">
<g fill="#ffffff">
<g transform="translate(0, 5) scale(1.55)">
  <path d="m19.44585 1.7015274l6.65625 0l18.859375 49.640625l-6.4375 0l-5.0 -13.65625l-21.484375 0l-5.0000005 13.65625l-6.4375 0l18.84375 -49.640625zm12.0625 30.4375l-6.640625 -17.890625l-1.953125 -5.328125l-0.265625 0l-1.953125 5.328125l-6.656249 17.890625l17.46875 0zm29.950851 20.3125q-6.375 0 -9.734375 -3.734375q-3.359375 -3.75 -3.359375 -10.484375l0 -22.25l5.890625 0l0 21.359375q0 5.0625 2.28125 7.421875q2.296875 2.34375 6.171875 2.34375q2.9843788 0 5.296879 -1.59375q2.328125 -1.59375 3.609375 -4.15625q1.28125 -2.5625 1.28125 -5.40625l0 -19.96875l5.90625 0l0 35.359375l-5.625 0l0 -5.125l-0.28125 0q-1.453125 2.625 -4.640625 4.4375q-3.1875 1.796875 -6.796879 1.796875zm40.005344 -0.5625q-2.140625 0 -3.984375 -0.6875q-1.84375 -0.6875 -3.078125 -1.875q-2.78125 -2.625 -2.78125 -7.28125l0 -20.71875l-6.171875 0l0 -5.343749l6.171875 0l0 -9.984375l5.890625 0l0 9.984375l8.671875 0l0 5.343749l-8.671875 0l0 19.265625q0 2.921875 1.109375 4.296875q1.328125 1.53125 3.8125 1.53125q2.15625 0 3.890625 -1.171875l0 5.75q-1.046875 0.484375 -2.125 0.6875q-1.0625 0.203125 -2.734375 0.203125zm26.551857 0.5625q-5.2031174 0 -9.359367 -2.484375q-4.15625 -2.5 -6.484375 -6.796875q-2.3125 -4.3125 -2.3125 -9.5q0 -5.203125 2.3125 -9.5q2.328125 -4.296875 6.484375 -6.796875q4.15625 -2.499999 9.359367 -2.499999q5.203125 0 9.359375 2.499999q4.15625 2.5 6.484375 6.796875q2.328125 4.296875 2.328125 9.5q0 5.1875 -2.328125 9.5q-2.328125 4.296875 -6.484375 6.796875q-4.15625 2.484375 -9.359375 2.484375zm0 -5.34375q3.265625 0 6.0625 -1.625q2.8125 -1.625 4.515625 -4.671875q1.703125 -3.0625 1.703125 -7.140625q0 -4.09375 -1.703125 -7.140625q-1.703125 -3.0625 -4.515625 -4.6875q-2.796875 -1.625 -6.0625 -1.625q-3.2499924 0 -6.0937424 1.625q-2.84375 1.625 -4.546875 4.6875q-1.703125 3.046875 -1.703125 7.140625q0 4.078125 1.703125 7.140625q1.703125 3.046875 4.546875 4.671875q2.84375 1.625 6.0937424 1.625zm26.21016 -45.40625l5.890625 0l0 26.140625l0.28125 0l22.328125 -26.140625l7.546875 0l0 0.28125l-18.375 21.21875l19.703125 27.859375l0 0.28125l-7.15625 0l-16.5 -23.640625l-7.828125 9.078125l0 14.5625l-5.890625 0l0 -49.640625zm56.575195 50.75q-5.0625 0 -9.09375 -2.421875q-4.015625 -2.4375 -6.265625 -6.6875q-2.25 -4.265625 -2.25 -9.609375q0 -5.0625 2.109375 -9.390625q2.109375 -4.34375 6.03125 -6.90625q3.921875 -2.562499 8.984375 -2.562499q5.1875 0 9.0 2.328124q3.828125 2.3125 5.859375 6.40625q2.046875 4.09375 2.046875 9.359375q0 0.828125 -0.140625 1.8125l-28.0 0q0.203125 4.015625 1.9375 6.796875q1.734375 2.765625 4.40625 4.15625q2.671875 1.375 5.578125 1.375q6.9375 0 10.46875 -6.375l4.984375 2.421875q-2.203125 4.234375 -6.15625 6.765625q-3.953125 2.53125 -9.5 2.53125zm10.1875 -22.53125q-0.140625 -2.21875 -1.25 -4.4375q-1.109375 -2.21875 -3.46875 -3.734375q-2.359375 -1.53125 -5.953125 -1.53125q-4.171875 0 -7.078125 2.671875q-2.90625 2.65625 -3.8125 7.03125l21.5625 0zm13.109833 -13.937499l5.609375 0l0 5.687499l0.28125 0q1.03125 -2.90625 4.015625 -4.8125q2.984375 -1.906249 6.234375 -1.906249q2.4375 0 4.171875 0.6875l0 6.374999q-2.21875 -1.109375 -5.0 -1.109375q-2.5625 0 -4.71875 1.46875q-2.140625 1.453125 -3.421875 3.921875q-1.28125 2.453125 -1.28125 5.28125l0 19.765625l-5.890625 0l0 -35.359375zm35.908234 36.46875q-3.890625 0 -6.9375 -1.515625q-3.046875 -1.53125 -4.71875 -4.203125q-1.65625 -2.671875 -1.65625 -6.0625q0 -5.625 4.21875 -8.765625q4.234375 -3.15625 10.6875 -3.15625q3.1875 0 5.921875 0.6875q2.734375 0.6875 4.203125 1.59375l0 -2.15625q0 -3.9375 -2.78125 -6.328125q-2.765625 -2.40625 -7.0 -2.40625q-2.90625 0 -5.4375 1.296875q-2.53125 1.28125 -3.984375 3.5625l-4.4375 -3.328125q2.078125 -3.1875 5.75 -4.984375q3.671875 -1.812499 8.109375 -1.812499q7.203125 0 11.296875 3.781249q4.09375 3.78125 4.09375 10.296875l0 22.390625l-5.609375 0l0 -5.0625l-0.28125 0q-1.53125 2.5625 -4.578125 4.375q-3.046875 1.796875 -6.859375 1.796875zm0.546875 -5.203125q2.984375 0 5.546875 -1.515625q2.5625 -1.53125 4.09375 -4.09375q1.53125 -2.5625 1.53125 -5.625q-1.671875 -1.109375 -4.09375 -1.796875q-2.421875 -0.6875 -5.140625 -0.6875q-4.84375 0 -7.3125 2.015625q-2.453125 2.0 -2.453125 5.1875q0 2.90625 2.21875 4.71875q2.21875 1.796875 5.609375 1.796875z" fill-rule="nonzero"/>
  <path d="m307.8518 52.451527q-5.6875 0 -9.5 -2.671875q-3.8125 -2.671875 -5.40625 -6.828125l5.28125 -2.359375q1.3125 3.1875 3.90625 4.921875q2.609375 1.734375 5.71875 1.734375q3.328125 0 5.6875 -1.34375q2.359375 -1.359375 2.359375 -3.859375q0 -2.21875 -1.875 -3.5625q-1.875 -1.359375 -5.890625 -2.328125l-4.296875 -1.109375q-4.234375 -1.03125 -6.9375 -3.53125q-2.703125 -2.5 -2.703125 -6.453125q0 -3.046875 1.828125 -5.359375q1.84375 -2.328125 4.890625 -3.578125q3.0625 -1.249999 6.59375 -1.249999q4.640625 0 8.28125 2.015624q3.640625 2.0 5.171875 5.609375l-5.125 2.359375q-2.359375 -4.71875 -8.390625 -4.71875q-2.921875 0 -5.109375 1.359375q-2.171875 1.34375 -2.171875 3.4375q0 1.9375 1.515625 3.15625q1.53125 1.203125 4.578125 1.96875l5.140625 1.3125q5.1875 1.3125 7.828125 3.921875q2.640625 2.59375 2.640625 6.34375q0 3.25 -1.875 5.71875q-1.875 2.453125 -5.0625 3.78125q-3.1875 1.3125 -7.078125 1.3125z" fill-rule="nonzero"/>
</g>
</g>
</svg>
